<?xml version="1.0" standalone="no"?>
<!DOCTYPE svg PUBLIC "-//W3C//DTD SVG 20010904//EN"
 "http://www.w3.org/TR/2001/REC-SVG-20010904/DTD/svg10.dtd">
<svg version="1.0" xmlns="http://www.w3.org/2000/svg"
 width="283.000000pt" height="283.000000pt" viewBox="0 0 283.000000 283.000000"
 preserveAspectRatio="xMidYMid meet">
<metadata>
Created by potrace 1.14, written by Peter Selinger 2001-2017
</metadata>
<g transform="translate(0.000000,283.000000) scale(0.100000,-0.100000)"
fill="#000000" stroke="none">
<path d="M1777 2664 c-1 -1 -18 -4 -37 -7 -45 -6 -70 -16 -94 -36 -11 -9 -16
-10 -12 -4 5 9 2 11 -8 7 -9 -3 -14 -9 -12 -13 3 -4 -8 -12 -24 -19 -15 -7
-42 -26 -59 -42 -17 -17 -38 -30 -46 -30 -8 0 -20 -9 -27 -20 -7 -11 -17 -20
-21 -20 -13 0 -37 -27 -30 -34 4 -3 0 -6 -8 -6 -14 0 -24 -8 -124 -108 -64
-63 -102 -107 -95 -108 3 0 -11 -15 -30 -32 -19 -18 -30 -32 -25 -32 25 0 -75
-73 -110 -80 -5 -1 -18 -9 -27 -17 -10 -9 -18 -12 -18 -7 0 5 -7 0 -15 -10 -8
-11 -15 -16 -15 -11 0 5 -7 -1 -16 -13 -8 -12 -19 -22 -25 -22 -5 0 -17 -8
-28 -17 -10 -10 -37 -34 -60 -53 -22 -19 -41 -40 -41 -46 0 -7 -3 -14 -7 -16
-5 -1 -21 -23 -36 -47 -16 -24 -23 -40 -15 -35 8 4 6 0 -3 -12 -14 -16 -31
-54 -34 -74 0 -3 -3 -9 -6 -15 -21 -35 -44 -184 -53 -338 -3 -54 -10 -107 -16
-117 -6 -11 -8 -20 -5 -20 8 0 -32 -56 -61 -85 -12 -12 -24 -21 -27 -19 -2 2
-37 -2 -78 -9 -41 -7 -93 -12 -116 -12 -24 0 -43 -3 -43 -7 0 -4 -8 -7 -17 -6
-44 0 -111 -31 -96 -45 3 -4 2 -7 -4 -7 -9 0 -11 -93 -3 -110 1 -3 2 -9 1 -13
-1 -4 6 -10 14 -13 8 -4 15 -13 15 -21 0 -8 4 -12 10 -8 5 3 19 -4 30 -15 12
-12 28 -19 36 -16 8 3 14 2 14 -2 0 -10 73 -16 163 -13 47 1 72 -3 82 -12 8
-8 12 -17 9 -20 -7 -7 91 -144 124 -173 72 -64 197 -138 214 -128 7 5 8 2 3
-6 -6 -10 -4 -12 8 -7 9 3 17 2 19 -4 2 -5 13 -11 25 -13 12 -3 31 -10 43 -16
11 -6 25 -8 30 -5 6 3 10 1 10 -6 0 -6 8 -9 20 -6 11 3 18 1 14 -4 -3 -5 7
-10 23 -11 41 -2 47 -3 59 -10 6 -4 21 -6 33 -3 11 2 21 0 21 -4 0 -5 8 -8 18
-8 51 0 55 -2 48 -30 -3 -16 -9 -39 -12 -53 -3 -13 -9 -29 -14 -35 -8 -9 -8
-51 -1 -108 1 -5 5 -5 11 -2 5 3 7 0 4 -8 -9 -25 44 -40 133 -36 28 1 97 61
113 99 7 16 15 30 19 31 3 1 17 2 31 3 14 0 31 5 39 10 11 7 12 6 6 -5 -7 -11
-5 -11 11 1 10 8 25 21 32 28 7 6 18 12 24 12 6 0 9 3 6 6 -3 3 5 17 18 31 14
15 23 32 20 38 -2 6 1 12 7 13 41 6 54 9 65 16 6 4 16 5 21 1 5 -3 12 -1 16 5
4 6 11 8 16 5 5 -4 9 -2 9 2 0 5 8 9 18 10 9 1 24 3 32 6 8 2 32 7 53 12 20 4
37 11 37 17 0 5 4 7 8 4 5 -3 23 4 41 15 18 11 29 14 25 7 -4 -7 5 -2 21 12
16 14 25 19 21 12 -4 -7 9 -1 30 13 20 14 41 25 46 25 5 0 6 4 3 10 -3 5 1 10
10 10 9 0 29 12 44 27 15 16 31 29 35 30 9 3 39 33 33 33 -3 0 14 19 37 43 39
40 94 132 88 149 -1 4 2 8 7 8 5 0 15 20 22 45 7 25 16 45 20 45 3 0 5 11 4
25 -2 14 0 25 4 25 4 0 8 6 9 13 0 6 4 26 7 42 4 17 9 41 10 55 2 14 4 25 5
25 2 0 3 11 4 25 1 14 4 30 7 35 5 9 5 244 0 255 -2 3 -3 24 -3 47 0 24 -4 45
-8 48 -5 3 -7 12 -4 19 3 8 1 17 -4 20 -5 3 -7 17 -4 31 2 15 0 25 -7 25 -7 0
-9 10 -5 27 4 15 7 33 7 40 0 7 7 15 14 17 8 3 11 10 8 16 -3 5 -1 10 5 10 6
0 8 5 5 10 -4 6 6 27 21 47 15 20 22 33 16 29 -8 -5 -10 -2 -6 8 3 9 10 13 15
10 5 -3 9 2 9 10 0 9 9 32 20 51 11 20 18 40 15 45 -3 4 2 11 11 14 8 3 12 10
9 16 -3 5 -1 10 6 10 7 0 9 3 6 7 -4 3 0 15 10 25 9 10 14 21 10 24 -3 3 3 22
14 41 11 19 14 31 7 27 -7 -4 -6 1 3 12 9 10 14 25 12 32 -3 6 1 12 7 12 7 0
10 7 7 15 -4 8 -2 17 4 20 5 4 7 11 4 16 -4 5 -2 9 3 9 9 0 26 53 25 78 0 6 2
12 6 12 4 0 8 10 9 23 3 45 12 102 16 114 3 7 1 15 -3 18 -5 3 -7 13 -5 23 6
22 -52 86 -71 78 -8 -3 -16 -2 -19 2 -3 6 -30 6 -139 2 -9 -1 -15 -5 -12 -10
3 -6 -1 -7 -9 -4 -9 3 -16 1 -16 -6 0 -6 -4 -8 -10 -5 -5 3 -10 1 -10 -6 0 -7
-3 -9 -7 -6 -3 4 -18 -3 -31 -15 -14 -13 -21 -16 -17 -8 8 13 6 13 -8 1 -9 -7
-14 -17 -11 -22 3 -5 -2 -6 -10 -3 -9 3 -16 1 -16 -5 0 -6 -5 -11 -11 -11 -7
0 -22 -12 -35 -27 -13 -16 -24 -24 -24 -19 0 5 -7 3 -15 -4 -8 -7 -12 -17 -8
-23 3 -5 1 -7 -4 -4 -6 4 -21 -7 -34 -23 -13 -16 -30 -30 -36 -30 -7 0 -13 -7
-13 -15 0 -8 -5 -15 -11 -15 -5 0 -7 -5 -3 -12 5 -8 2 -9 -9 -5 -15 6 -22 -3
-18 -26 0 -4 -3 -6 -8 -5 -11 4 -104 -90 -120 -121 -10 -17 -16 -20 -24 -12
-6 6 -21 11 -34 11 -13 0 -23 5 -23 11 0 5 -4 7 -10 4 -5 -3 -10 -1 -10 5 0 7
-7 10 -15 7 -8 -4 -17 -1 -21 5 -4 7 -3 8 4 4 8 -5 11 3 8 23 -2 17 0 31 4 31
4 0 7 6 8 13 1 14 10 52 12 52 2 0 10 34 15 60 2 11 4 20 5 20 5 0 24 138 22
165 -3 59 -22 100 -48 100 -8 0 -14 5 -14 11 0 6 -7 8 -16 5 -8 -3 -13 -2 -10
2 4 7 -80 12 -87 6z"/>
</g>
</svg>
